<?xml version="1.0" encoding="utf-8"?>
<!-- Generator: Adobe Illustrator 17.0.0, SVG Export Plug-In . SVG Version: 6.00 Build 0)  -->
<!DOCTYPE svg PUBLIC "-//W3C//DTD SVG 1.1//EN" "http://www.w3.org/Graphics/SVG/1.1/DTD/svg11.dtd">
<svg version="1.1" id="Layer_1" xmlns="http://www.w3.org/2000/svg" xmlns:xlink="http://www.w3.org/1999/xlink" x="0px" y="0px"
	 width="800px" height="600px" viewBox="0 0 800 600" enable-background="new 0 0 800 600" xml:space="preserve">
<g display="none">
	<path display="inline" fill="#3B7ABE" d="M665,476c0,44.183-35.817,80-80,80H233c-44.183,0-80-35.817-80-80V124
		c0-44.183,35.817-80,80-80h352c44.183,0,80,35.817,80,80V476z"/>
	<polygon display="inline" fill="#FFFFFF" stroke="#000000" stroke-miterlimit="10" points="278.208,138.582 557.792,300 
		278.208,461.418 	"/>
</g>
<path fill="#3B7ABE" d="M665,476c0,44.183-35.817,80-80,80H233c-44.183,0-80-35.817-80-80V124c0-44.183,35.817-80,80-80h352
	c44.183,0,80,35.817,80,80V476z"/>
<path fill="#306DA5" d="M444.175,364.325L278.208,138.582L153,263.789V476c0,44.183,35.817,80,80,80h5.306h6.369L256,552.443
	L444.175,364.325z"/>
<path fill="#FFFFFF" d="M297.274,443.468c-5.753,0-11.425-1.523-16.402-4.405c-10.065-5.804-16.337-16.667-16.337-28.333V164.933
	c0-11.657,6.27-22.519,16.364-28.35c4.982-2.873,10.64-4.389,16.374-4.389c5.727,0,11.378,1.511,16.343,4.37l212.892,122.914
	c10.099,5.836,16.369,16.698,16.369,28.352c0,11.666-6.277,22.532-16.382,28.359l-212.853,122.89
	C308.685,441.949,303.02,443.468,297.274,443.468z"/>
</svg>
